HIERARCHY
ROOT Bone
{
	OFFSET 0.000000 0.000000 0.000000
	CHANNELS 6 Xposition Yposition Zposition Xrotation Yrotation Zrotation
	End Site
	{
		OFFSET 0.000000 0.000000 1.000000
	}
}
MOTION
Frames: 192
Frame Time: 0.041667
0.000000 0.000000 0.000000 -0.000000 0.000000 -0.000000 
0.000000 0.000000 0.000000 -0.000000 1.000413 -0.000000 
0.000000 0.000000 0.000000 -0.000000 4.012547 -0.000000 
0.000000 0.000000 0.000000 -0.000000 8.875628 -0.000000 
0.000000 0.000000 0.000000 -0.000000 15.090427 -0.000000 
0.000000 0.000000 0.000000 -0.000000 21.803256 -0.000000 
0.000000 0.000000 0.000000 -0.000000 28.013679 -0.000000 
0.000000 0.000000 0.000000 -0.000000 32.896974 -0.000000 
0.000000 0.000000 0.000000 -0.000000 35.985972 -0.000000 
0.000000 0.000000 0.000000 -0.000002 37.131336 0.000006 
0.000000 0.000000 0.000000 0.720963 37.283581 -0.001195 
0.000000 0.000000 0.000000 2.907710 37.385764 -0.008105 
0.000000 0.000000 0.000000 6.490068 37.435085 -0.021636 
0.000000 0.000000 0.000000 11.197336 37.433477 -0.037216 
0.000000 0.000000 0.000000 16.528049 37.390317 -0.047255 
0.000000 0.000000 0.000000 21.826199 37.322271 -0.046229 
0.000000 0.000000 0.000000 26.453423 37.248819 -0.034655 
0.000000 0.000000 0.000000 29.947965 37.186401 -0.018477 
0.000000 0.000000 0.000000 32.074582 37.145519 -0.005111 
0.000000 0.000000 0.000000 32.776763 37.131340 0.000005 
0.000000 0.000000 0.000000 32.776763 37.131340 0.000005 
0.000000 0.000000 0.000000 32.776763 37.131340 0.000005 
0.000000 0.000000 0.000000 32.776763 37.131340 0.000005 
0.000000 0.000000 0.000000 32.776763 37.131340 0.000005 
0.000000 0.000000 0.000000 32.776763 37.131340 0.000005 
0.000000 0.000000 0.000000 32.776763 37.131340 0.000005 
0.000000 0.000000 0.000000 32.776763 37.131340 0.000005 
0.000000 0.000000 0.000000 32.776763 37.131340 0.000005 
0.000000 0.000000 0.000000 32.776763 37.131340 0.000005 
0.000000 0.000000 0.000000 32.776763 37.131340 0.000005 
0.000000 0.000000 0.000000 32.776763 37.131340 0.000005 
0.000000 0.000000 0.000000 32.776763 37.131340 0.000005 
0.000000 0.000000 0.000000 32.776763 37.131340 0.000005 
0.000000 0.000000 0.000000 32.776763 37.131340 0.000005 
0.000000 0.000000 0.000000 32.776763 37.131340 0.000005 
0.000000 0.000000 0.000000 32.776763 37.131340 0.000005 
0.000000 0.000000 0.000000 32.776763 37.131340 0.000005 
0.000000 0.000000 0.000000 32.776763 37.131340 0.000005 
0.000000 0.000000 0.000000 32.776763 37.131340 0.000005 
0.000000 0.000000 0.000000 32.776763 37.131340 0.000005 
0.000000 0.000000 0.000000 32.776763 37.131340 0.000005 
0.000000 0.000000 0.000000 32.776763 37.131340 0.000005 
0.000000 0.000000 0.000000 32.776763 37.131340 0.000005 
0.000000 0.000000 0.000000 32.776763 37.131340 0.000005 
0.000000 0.000000 0.000000 32.776763 37.131340 0.000005 
0.000000 0.000000 0.000000 32.776763 37.131340 0.000005 
0.000000 0.000000 0.000000 32.776763 37.131340 0.000005 
0.000000 0.000000 0.000000 32.776763 37.131340 0.000005 
0.000000 0.000000 0.000000 32.776763 37.131340 0.000005 
0.000000 0.000000 0.000000 32.776763 37.131340 0.000005 
0.000000 0.000000 0.000000 32.776763 37.131340 0.000005 
0.000000 0.000000 0.000000 32.776763 37.131340 0.000005 
0.000000 0.000000 0.000000 32.776763 37.131340 0.000005 
0.000000 0.000000 0.000000 32.776763 37.131340 0.000005 
0.000000 0.000000 0.000000 32.776763 37.131340 0.000005 
0.000000 0.000000 0.000000 32.776763 37.131340 0.000005 
0.000000 0.000000 0.000000 32.776763 37.131340 0.000005 
0.000000 0.000000 0.000000 32.776763 37.131340 0.000005 
0.000000 0.000000 0.000000 32.776763 37.131340 0.000005 
0.000000 0.000000 0.000000 32.776763 37.131340 0.000005 
0.000000 0.000000 0.000000 32.776763 37.131340 0.000005 
0.000000 0.000000 0.000000 32.776763 37.131340 0.000005 
0.000000 0.000000 0.000000 32.776763 37.131340 0.000005 
0.000000 0.000000 0.000000 32.776763 37.131340 0.000005 
0.000000 0.000000 0.000000 32.776763 37.131340 0.000005 
0.000000 0.000000 0.000000 32.776763 37.131340 0.000005 
0.000000 0.000000 0.000000 32.776763 37.131340 0.000005 
0.000000 0.000000 0.000000 32.776763 37.131340 0.000005 
0.000000 0.000000 0.000000 32.776763 37.131340 0.000005 
0.000000 0.000000 0.000000 32.776763 37.131340 0.000005 
0.000000 0.000000 0.000000 32.776763 37.131340 0.000005 
0.000000 0.000000 0.000000 32.776763 37.131340 0.000005 
0.000000 0.000000 0.000000 32.776763 37.131340 0.000005 
0.000000 0.000000 0.000000 32.776763 37.131340 0.000005 
0.000000 0.000000 0.000000 32.776763 37.131340 0.000005 
0.000000 0.000000 0.000000 32.776763 37.131340 0.000005 
0.000000 0.000000 0.000000 32.776763 37.131340 0.000005 
0.000000 0.000000 0.000000 32.776763 37.131340 0.000005 
0.000000 0.000000 0.000000 32.776763 37.131340 0.000005 
0.000000 0.000000 0.000000 32.776763 37.131340 0.000005 
0.000000 0.000000 0.000000 32.776763 37.131340 0.000005 
0.000000 0.000000 0.000000 32.776763 37.131340 0.000005 
0.000000 0.000000 0.000000 32.776763 37.131340 0.000005 
0.000000 0.000000 0.000000 32.776763 37.131340 0.000005 
0.000000 0.000000 0.000000 32.776763 37.131340 0.000005 
0.000000 0.000000 0.000000 32.776763 37.131340 0.000005 
0.000000 0.000000 0.000000 32.776763 37.131340 0.000005 
0.000000 0.000000 0.000000 32.776763 37.131340 0.000005 
0.000000 0.000000 0.000000 32.776763 37.131340 0.000005 
0.000000 0.000000 0.000000 32.776763 37.131340 0.000005 
0.000000 0.000000 0.000000 32.776763 37.131340 0.000005 
0.000000 0.000000 0.000000 32.776763 37.131340 0.000005 
0.000000 0.000000 0.000000 32.776763 37.131340 0.000005 
0.000000 0.000000 0.000000 32.776763 37.131340 0.000005 
0.000000 0.000000 0.000000 32.776763 37.131340 0.000005 
0.000000 0.000000 0.000000 32.776763 37.131340 0.000005 
0.000000 0.000000 0.000000 32.776763 37.131340 0.000005 
0.000000 0.000000 0.000000 32.776763 37.131340 0.000005 
0.000000 0.000000 0.000000 32.776763 37.131340 0.000005 
0.000000 0.000000 0.000000 32.776763 37.131340 0.000005 
0.000000 0.000000 0.000000 32.776763 37.131340 0.000005 
0.000000 0.000000 0.000000 32.776763 37.131340 0.000005 
0.000000 0.000000 0.000000 32.776763 37.131340 0.000005 
0.000000 0.000000 0.000000 32.776763 37.131340 0.000005 
0.000000 0.000000 0.000000 32.776763 37.131340 0.000005 
0.000000 0.000000 0.000000 32.776763 37.131340 0.000005 
0.000000 0.000000 0.000000 32.776763 37.131340 0.000005 
0.000000 0.000000 0.000000 32.776763 37.131340 0.000005 
0.000000 0.000000 0.000000 32.776763 37.131340 0.000005 
0.000000 0.000000 0.000000 32.776763 37.131340 0.000005 
0.000000 0.000000 0.000000 32.776763 37.131340 0.000005 
0.000000 0.000000 0.000000 32.776763 37.131340 0.000005 
0.000000 0.000000 0.000000 32.776763 37.131340 0.000005 
0.000000 0.000000 0.000000 32.776763 37.131340 0.000005 
0.000000 0.000000 0.000000 32.776763 37.131340 0.000005 
0.000000 0.000000 0.000000 32.776763 37.131340 0.000005 
0.000000 0.000000 0.000000 32.776763 37.131340 0.000005 
0.000000 0.000000 0.000000 32.776763 37.131340 0.000005 
0.000000 0.000000 0.000000 32.776763 37.131340 0.000005 
0.000000 0.000000 0.000000 32.776763 37.131340 0.000005 
0.000000 0.000000 0.000000 32.776763 37.131340 0.000005 
0.000000 0.000000 0.000000 32.776763 37.131340 0.000005 
0.000000 0.000000 0.000000 32.776763 37.131340 0.000005 
0.000000 0.000000 0.000000 32.776763 37.131340 0.000005 
0.000000 0.000000 0.000000 32.776763 37.131340 0.000005 
0.000000 0.000000 0.000000 32.776763 37.131340 0.000005 
0.000000 0.000000 0.000000 32.776763 37.131340 0.000005 
0.000000 0.000000 0.000000 32.776763 37.131340 0.000005 
0.000000 0.000000 0.000000 32.776763 37.131340 0.000005 
0.000000 0.000000 0.000000 32.776763 37.131340 0.000005 
0.000000 0.000000 0.000000 32.776763 37.131340 0.000005 
0.000000 0.000000 0.000000 32.776763 37.131340 0.000005 
0.000000 0.000000 0.000000 32.776763 37.131340 0.000005 
0.000000 0.000000 0.000000 32.776763 37.131340 0.000005 
0.000000 0.000000 0.000000 32.776763 37.131340 0.000005 
0.000000 0.000000 0.000000 32.776763 37.131340 0.000005 
0.000000 0.000000 0.000000 32.776763 37.131340 0.000005 
0.000000 0.000000 0.000000 32.776763 37.131340 0.000005 
0.000000 0.000000 0.000000 32.776763 37.131340 0.000005 
0.000000 0.000000 0.000000 32.776763 37.131340 0.000005 
0.000000 0.000000 0.000000 32.776763 37.131340 0.000005 
0.000000 0.000000 0.000000 32.776763 37.131340 0.000005 
0.000000 0.000000 0.000000 32.776763 37.131340 0.000005 
0.000000 0.000000 0.000000 32.776763 37.131340 0.000005 
0.000000 0.000000 0.000000 32.776763 37.131340 0.000005 
0.000000 0.000000 0.000000 32.776763 37.131340 0.000005 
0.000000 0.000000 0.000000 32.776763 37.131340 0.000005 
0.000000 0.000000 0.000000 32.776763 37.131340 0.000005 
0.000000 0.000000 0.000000 32.776763 37.131340 0.000005 
0.000000 0.000000 0.000000 32.776763 37.131340 0.000005 
0.000000 0.000000 0.000000 32.776763 37.131340 0.000005 
0.000000 0.000000 0.000000 32.776763 37.131340 0.000005 
0.000000 0.000000 0.000000 32.776763 37.131340 0.000005 
0.000000 0.000000 0.000000 32.776763 37.131340 0.000005 
0.000000 0.000000 0.000000 32.776763 37.131340 0.000005 
0.000000 0.000000 0.000000 32.776763 37.131340 0.000005 
0.000000 0.000000 0.000000 32.776763 37.131340 0.000005 
0.000000 0.000000 0.000000 32.776763 37.131340 0.000005 
0.000000 0.000000 0.000000 32.776763 37.131340 0.000005 
0.000000 0.000000 0.000000 32.776763 37.131340 0.000005 
0.000000 0.000000 0.000000 32.776763 37.131340 0.000005 
0.000000 0.000000 0.000000 32.776763 37.131340 0.000005 
0.000000 0.000000 0.000000 32.776763 37.131340 0.000005 
0.000000 0.000000 0.000000 32.776763 37.131340 0.000005 
0.000000 0.000000 0.000000 32.776763 37.131340 0.000005 
0.000000 0.000000 0.000000 32.776763 37.131340 0.000005 
0.000000 0.000000 0.000000 32.776763 37.131340 0.000005 
0.000000 0.000000 0.000000 32.776763 37.131340 0.000005 
0.000000 0.000000 0.000000 32.776763 37.131340 0.000005 
0.000000 0.000000 0.000000 32.776763 37.131340 0.000005 
0.000000 0.000000 0.000000 32.776763 37.131340 0.000005 
0.000000 0.000000 0.000000 32.776763 37.131340 0.000005 
0.000000 0.000000 0.000000 32.776763 37.131340 0.000005 
0.000000 0.000000 0.000000 32.776763 37.131340 0.000005 
0.000000 0.000000 0.000000 32.776763 37.131340 0.000005 
0.000000 0.000000 0.000000 32.776763 37.131340 0.000005 
0.000000 0.000000 0.000000 32.776763 37.131340 0.000005 
0.000000 0.000000 0.000000 32.776763 37.131340 0.000005 
0.000000 0.000000 0.000000 32.776763 37.131340 0.000005 
0.000000 0.000000 0.000000 32.776763 37.131340 0.000005 
0.000000 0.000000 0.000000 32.776763 37.131340 0.000005 
0.000000 0.000000 0.000000 32.776763 37.131340 0.000005 
0.000000 0.000000 0.000000 32.776763 37.131340 0.000005 
0.000000 0.000000 0.000000 32.776763 37.131340 0.000005 
0.000000 0.000000 0.000000 32.776763 37.131340 0.000005 
0.000000 0.000000 0.000000 32.776763 37.131340 0.000005 
0.000000 0.000000 0.000000 32.776763 37.131340 0.000005 
0.000000 0.000000 0.000000 32.776763 37.131340 0.000005 
0.000000 0.000000 0.000000 32.776763 37.131340 0.000005 
0.000000 0.000000 0.000000 32.776763 37.131340 0.000005 
0.000000 0.000000 0.000000 32.776763 37.131340 0.000005 
0.000000 0.000000 0.000000 32.776763 37.131340 0.000005 
